<svg xmlns="http://www.w3.org/2000/svg" xmlns:xlink="http://www.w3.org/1999/xlink" viewBox="0 0 2034.16 1665.76"><defs><style>.cls-1{fill:none;}.cls-2{fill:#fcc13f;}.cls-3{clip-path:url(#clip-path);}.cls-4{fill:url(#Новый_образец_градиента_2);}.cls-5{fill:#f3ffff;}.cls-6{fill:#fee2bf;}.cls-7{fill:#ffa42f;}.cls-8{fill:#adeff7;}.cls-9{fill:#8ce6ed;}.cls-10{fill:#ff7a03;}.cls-11{fill:#2ba14c;}.cls-12{fill:url(#Новый_образец_градиента_3);}.cls-13{fill:#8cd334;}.cls-14{fill:url(#Новый_образец_градиента_3-2);}.cls-15{fill:url(#Новый_образец_градиента_3-3);}.cls-16{fill:url(#Новый_образец_градиента_3-4);}.cls-17{fill:url(#Новый_образец_градиента_3-5);}.cls-18{fill:url(#Новый_образец_градиента_3-6);}.cls-19{fill:url(#Новый_образец_градиента_3-7);}.cls-20{fill:#355389;}.cls-21{fill:#466eb6;}.cls-22{fill:#d6007e;}.cls-23{fill:#fc008b;}.cls-24{fill:#352e73;}.cls-25{fill:#fae0b2;}.cls-26{fill:#f7a491;}.cls-27{fill:#2d2861;}.cls-28{fill:#7271b3;}.cls-29{fill:#f48c7f;}.cls-30{fill:#f47458;}</style><clipPath id="clip-path" transform="translate(0 311.75)"><path class="cls-1" d="M1979.84,1029.12c-4.46,18.57-9.29,36.76-14.51,54.41-19.53,66.12-40.18,129.42-59.76,185-64.2,49.73-156.28,62.6-246.06,50.13-49.48-6.87-96.9-24.83-143-43.34a1147.09,1147.09,0,0,0-188.62-57.49c-52-11.09-104.43-19.88-156.47-30.7-63.86-13.27-96.5-57.76-141.36-98.6-46-41.83-105.11-61.24-165.84-75-70.19-15.9-212.28-73.59-283.65-83.94C456.87,911.6,286.16,1118.76,216,1013c-42-63.39-12.37-336.56-12.37-336.56,0-89.91-66.83-70.46-63.26-226.34,2.5-109,39.37-184.85,112.47-268.52C446.18-39.73,732.07-36.56,886.06,73c57.18,40.67,80.88,86.1,151.94,110.17,66.13,22.41,140.19,16.18,207.45,2.06,90.7-19,180.32-51.66,273-47.28,117.13,5.54,228.62,75.3,281,175.85,43.55,83.52,46.12,178.74,51.07,270.07C1863,811.48,1955.39,864.22,1979.84,1029.12Z"/></clipPath><linearGradient id="Новый_образец_градиента_2" x1="1064.2" y1="37.78" x2="1056.87" y2="1285.17" gradientUnits="userSpaceOnUse"><stop offset="0" stop-color="#8bf9fd"/><stop offset="0.99" stop-color="#fafee5"/></linearGradient><linearGradient id="Новый_образец_градиента_3" x1="754.6" y1="-206.77" x2="547.31" y2="387.57" gradientUnits="userSpaceOnUse"><stop offset="0" stop-color="#37a849"/><stop offset="0.99" stop-color="#91d53d"/></linearGradient><linearGradient id="Новый_образец_градиента_3-2" x1="1289.59" y1="292.29" x2="1608.09" y2="292.29" xlink:href="#Новый_образец_градиента_3"/><linearGradient id="Новый_образец_градиента_3-3" x1="1504.78" y1="516.66" x2="1617.97" y2="516.66" xlink:href="#Новый_образец_градиента_3"/><linearGradient id="Новый_образец_градиента_3-4" x1="1903.75" y1="200.4" x2="1694.63" y2="371" xlink:href="#Новый_образец_градиента_3"/><linearGradient id="Новый_образец_градиента_3-5" x1="691.6" y1="-228.75" x2="484.31" y2="365.6" xlink:href="#Новый_образец_градиента_3"/><linearGradient id="Новый_образец_градиента_3-6" x1="616.54" y1="-254.92" x2="409.26" y2="339.42" xlink:href="#Новый_образец_градиента_3"/><linearGradient id="Новый_образец_градиента_3-7" x1="499.59" y1="-295.71" x2="292.3" y2="298.63" xlink:href="#Новый_образец_градиента_3"/></defs><title>Asset 1</title><g id="Layer_2" data-name="Layer 2"><g id="Layer_1-2" data-name="Layer 1"><polygon class="cls-2" points="1163.46 1463.4 1066.93 1618.96 1064.12 1638.64 1281.54 1500.88 1163.46 1463.4"/><g class="cls-3"><path class="cls-4" d="M1799.54,313.8c-52.42-100.55-163.91-170.31-281-175.85-92.73-4.38-182.35,28.26-273,47.28-67.26,14.12-141.32,20.35-207.45-2.06C966.94,159.1,943.24,113.67,886.06,73,732.07-36.56,446.18-39.73,252.85,181.53c-73.1,83.67-110,159.54-112.47,268.52-3.57,155.88,63.26,136.43,63.26,226.34,0,0-45.9,292.72-3.87,356.1,70.15,105.81,257.1-120.89,380.79-103,71.37,10.35,213.46,68,283.65,83.94,60.73,13.76,119.88,33.17,165.84,75,44.86,40.84,77.5,85.33,141.36,98.6,51.9,10.79,263,41.33,307.73,68.71,32.47,19.88,70.07,36.17,109.86,47.73h252.28a238.5,238.5,0,0,0,64.29-35c19.58-55.53,40.23-118.83,59.76-185,5.22-17.65,10.05-35.84,14.51-54.41-24.45-164.9-116.88-217.64-129.23-445.25C1845.66,492.54,1843.09,397.32,1799.54,313.8Z" transform="translate(0 311.75)"/><path class="cls-5" d="M1861.69,678.77a722.38,722.38,0,0,1-10.88-91.32C1329.22,499.68,797.93,242,276.44,156.09q-12,12.19-23.59,25.44c-57.45,65.76-92.52,126.7-106.12,202.68C873.26,332.6,1322.86,597.85,1861.69,678.77Z" transform="translate(0 311.75)"/><path class="cls-5" d="M916,765.77c-3.92-40.24-23.3-75.46-51.43-96.88q.54-6.39.53-12.83c0-68.84-44.45-125.85-101.78-134.37-23.49-51.91-70.5-86.44-123-86.44-48.43,0-91.85,29.65-116.72,74.46a112.94,112.94,0,0,0-40.7-7.65c-44.2,0-83.18,25.44-106.54,64.66a132.13,132.13,0,0,0-59.11-14.06c-50.85,0-95.91,29.37-123,74.61,5.64,12.78,9.36,27.91,9.36,49.12,0,0-5.94,37.9-11.59,89.38Z" transform="translate(0 311.75)"/><path class="cls-5" d="M1225.91,826.26c-3.75-16.63-22.29-31.18-49.19-40a27.91,27.91,0,0,0,.51-5.3c0-28.45-42.52-52-97.35-55.52-22.47-21.45-67.43-35.72-117.6-35.72-46.32,0-87.85,12.25-111.63,30.77a237,237,0,0,0-38.93-3.16c-42.27,0-79.56,10.5-101.9,26.71a270.75,270.75,0,0,0-56.53-5.81c-60.16,0-111.82,18.56-132.95,45.13-46.59,1.77-84.22,19.89-90.05,42.93Z" transform="translate(0 311.75)"/><path class="cls-6" d="M683.64,691.51c-92.53-48.09-153.73-80.08-251.15-112.46-49.33-16.39-106.76-65.91-157.44-52.48-31.88,8.45-79.52,19.62-117.12,37.93,18.76,41.8,45.71,54.79,45.71,111.89,0,0-13.65,87.07-19.25,176.52Q399.12,829.27,613.7,804l160.21-19.17c25.62-3.06,51.7-4.75,77.17-9.22,15-2.65,35.53-11.79,50.21-3.1-35.77-21.16-71.45-46.59-109.23-62.11C751.51,693.78,723.18,712.06,683.64,691.51Z" transform="translate(0 311.75)"/><path class="cls-5" d="M1850.79,788.77c-3.75-16.62-22.28-31.18-49.19-40a27.83,27.83,0,0,0,.51-5.3c0-28.44-42.52-52-97.35-55.52-22.47-21.45-67.43-35.71-117.59-35.71-46.33,0-87.86,12.25-111.64,30.76a238.05,238.05,0,0,0-38.93-3.16c-42.27,0-79.56,10.51-101.9,26.72a270,270,0,0,0-56.53-5.81c-60.15,0-111.81,18.56-132.94,45.13-46.6,1.76-84.23,19.89-90.06,42.92Z" transform="translate(0 311.75)"/><path class="cls-6" d="M1879.84,750.8a241,241,0,0,0-65.16-8.63c-46.32,0-87.85,12.25-111.64,30.77a236.91,236.91,0,0,0-38.92-3.17c-42.28,0-79.56,10.52-101.9,26.72a270.82,270.82,0,0,0-56.53-5.81c-60.16,0-111.82,18.56-133,45.13-46.6,1.77-84.23,19.9-90.06,42.93h650.11C1914.86,838.77,1895.44,799.55,1879.84,750.8Z" transform="translate(0 311.75)"/><ellipse class="cls-7" cx="1569.79" cy="1101.7" rx="88.14" ry="92.22"/><path class="cls-5" d="M1965.33,1083.53c5.22-17.65,10.05-35.84,14.51-54.41-14.86-100.21-54.82-159-86.66-240.79H189.69c-8.92,89.8-14.69,206.81,10.08,244.16,70.15,105.81,257.1-120.89,380.79-103,71.37,10.35,213.46,68,283.65,83.94,60.73,13.76,119.88,33.17,165.84,75,44.86,40.84,77.5,85.33,141.36,98.6,51.9,10.79,263,41.33,307.73,68.71,32.47,19.88,70.07,36.17,109.86,47.73h252.28a238.5,238.5,0,0,0,64.29-35C1925.15,1213,1945.8,1149.65,1965.33,1083.53Z" transform="translate(0 311.75)"/><path class="cls-8" d="M199.77,1032.49c6.87,10.37,14.87,17.55,23.82,22.08H286.4c87.11-27.62,206.51-137.74,294.16-125,71.37,10.35,213.46,68,283.65,83.94,41.23,9.34,81.73,21.29,117.87,41.09h991.35q3.32-12.58,6.41-25.45c-14.86-100.21-54.82-159-86.66-240.79H189.69C180.77,878.13,175,995.14,199.77,1032.49Z" transform="translate(0 311.75)"/><path class="cls-9" d="M1906.13,857.75c-7.22-16-6-51.5-12.77-69C1337.88,757,736.88,752.19,187.66,810c0,0,0,0,0,.08,0,.41-.07.83-.11,1.24v0q-.4,4.66-.8,9.39C340.36,804,542.53,793,664,790.85c443.16-7.8,749.64-.9,1101.46,47.17C1811.4,844.3,1858.18,850,1906.13,857.75Z" transform="translate(0 311.75)"/><path class="cls-2" d="M1948.05,1140.4H1084.57c26.35,23.34,52.38,39.52,86.84,46.68,51.9,10.79,245.79,64.63,290.53,92,32.47,19.88,115.3,31.54,155.09,43.11l224.25-18.69a238.5,238.5,0,0,0,64.29-35C1920.56,1226,1934.94,1182.41,1948.05,1140.4Z" transform="translate(0 311.75)"/><path class="cls-6" d="M1924.05,1214.66c13.25-39.61,26.67-81.94,39.63-125.57-339.7,18.2-640.44,12.37-929.82,2.9,22.69,21,42.49,42.81,65.26,60.55q86,8.31,171.92,16.35C1488.71,1189.07,1706.38,1206.68,1924.05,1214.66Z" transform="translate(0 311.75)"/><path class="cls-10" d="M714.84-51.4C726.77-39,736.9-26.09,744.3-10.64h0a.45.45,0,0,0,.06.12,127.26,127.26,0,0,1,8.73,24.58l-.26-.09c-8.32-2.94-15.29-5.29-22.19-7.86C712-.8,679.53-6.69,649-10.65h0c-35.5-4.6-68.37-6.6-73.78-4.59,20.75,4.87,43.18,5.77,61.92,15.36,58.06,29.7,105.73,73.6,132.74,141.12a182.81,182.81,0,0,1,10.66,99c-.81,4.89-2,9.7-3.64,17.07l0-.05,0,0c-40.67-51.05-84.36-95.18-134.72-134.46l-.13-.1c-1.82-1.42-3.65-2.85-5.5-4.25,10.81,41.08,11.22,79.17-6.59,118.69-4.19-9.88-33.84-89.23-34.47-89.05.52,4.62,28.11,137.75,2.81,189.06-16.12,32.7-53.15,57.29-55.44,58.25-.62-81.23,1.88-116.58-13.9-184.57a0,0,0,0,1,0,0c-1.91-8.21-4.08-16.89-6.55-26.19,3.13,62.38-9.14,101.91-107.92,144.25,17.73-66,66.45-118.24,28.7-196.32-.13.5-53.86,372.35-150.87,653.52-5.74,16.63-119.82,203.51-125.12,220.72-16.45-9.41-3.52-92-18.4-103.74,14.89-38.36,39.77-90.15,58.89-127.18,45-87.13,96.49-256.76,123.45-347.41,21.16-71.14,56.53-216.94,74.31-289.53-9.57,6.22-47,72.11-72.84,132.72-20,47.08-28.23,95.3-47.05,144.2-4.79-8.31-16-26.35-20.38-35.84-23.56-50.88-27.28-95-13.56-150.48,10.64-42.95,32.77-81.9,54.7-119,5.8-9.81.63-6.53,1.69-11.45-35.78,36.55-66.59,75.82-95.62,119.89-12.68-47.11.63-75.19,14.85-125.49-75.3,42.5-43.92,23.45-120.28,73.09,1.23-11,1.63-20.57,3.43-29.82,9.18-47.2,33.92-92,67.33-121.65,38.33-34,130.88-59.55,132.44-60.88A566,566,0,0,0,145.67-23.41C156-49.68,171.34-68.79,191.24-81.62c19.37-12.48,40.48-21.36,61.59-32.21-21.44-8.27-43.49-17.52-66-25.23-22.67-7.75-45.8-14-70.89-21.5,60.18-60.34,125.71-60.63,194.13-37.9l1.43-2.82-81.29-66.67c21.89-9.6,44-11.12,66.45-6.39,38.11,8,68.63,31.06,96,60.16,40.08,42.63,37.8,53.07,49.14,103,.37,1.63.66,3.3.93,5a.84.84,0,0,0,1.65.07c6.32-25.53,43.4-174.35,156.27-196.79,20.45-8.82,41.9-10.66,63.32-7a57.68,57.68,0,0,1,6.07,1.34,12.82,12.82,0,0,1,2.62,1.62L614.81-235.7l47.8,11.24c.21,1.29.22,1.37.43,2.67-2.77,1.8-5.66,3.38-8.31,5.38-31.87,24-108.82,32.38-140.55,56.62-5.9,4.51-22,78.09-21.5,78.73,3.59-1.93,117.67-56.33,158.4-63.39,46.4-8.05,91.91-7.76,135.08,13.25,27.5,13.38,50,33.72,66.21,62.36a38.16,38.16,0,0,1,2.44,5.26c.31.81.17,1.85.3,3.69C808.73-61.12,762.7-59.52,714.84-51.4Z" transform="translate(0 311.75)"/><path class="cls-10" d="M1637.65,409.73l0,0s.28,2.63.28,2.6c17.91,160,76,361.2,173.35,503.13,56.27,82,129.1,150.65,222.86,186.19l-33.93,72.87c-138.85-64.62-231-189-290.92-328.69-67.06-156.15-95.25-345.34-97.11-436.08Z" transform="translate(0 311.75)"/><path class="cls-11" d="M1808.21,445c-8-15.93-17-23.19-18.74-26.24.44-.31,37.38,10.24,43.55,15.79,2.65-33-11.22-55.15-51.13-72.76,53.42,11.64,102.52,29.11,151.22,52.76-.88-5.6-1.29-9.33-2.06-13A123.72,123.72,0,0,0,1894,336.2c-40.89-38.46-91.29-54.11-145.78-56.68-17.6-.83-35.6,5.52-53.41,8.58,6.87-5.71,92.91-31.37,129.1-33.5,6.27-.37,12.53-.91,20.06-1.46-13.28-16.95-29.81-26.25-49.2-33.55,35.48-20.52,71.42-35.93,108.45-49.5a11.72,11.72,0,0,0-1.3-2.47,28.8,28.8,0,0,0-3.46-2.89c-21.11-14.83-44.78-22-70.4-22.7-40.21-1.16-76.28,12.79-110.64,32.8-30.15,17.56-77.36,76.13-79.63,78.58-.58-.29,2.71-29.53,14.76-53.82,14.33-28.88,28.68-49.28,46.94-75.85,1.49-2.16,3.26-4.13,4.91-6.19l-1-1.85-41,7.06c8.46-22.74,16.74-45,25.09-67.48a11.55,11.55,0,0,0-2.54-.31c-1.74.23-3.47.56-5.18,1-18,4.13-35,4.6-48.58,17.08-90.59,55.46-65,195.29-65.8,195.56-1.25-1.87-2.43-3.8-3.78-5.59-23.4-31.11-24.62-39.07-68.65-56.2-30-11.69-60.84-18.19-93.3-11.92-19.1,3.69-36.17,11.63-50.7,25.1,28.19,7.08,83.5,22,83.4,23.39-60.74,5.48-112.53,26-142.67,86.67,22-2.57,42.1-5.44,62.27-7.11s40.15-2.08,59.48-3c-13.55,14.1-28.13,24.25-39.84,38.94-12,15.09-18.15,35.69-18.71,57.14a535.43,535.43,0,0,1,123.48-66.66c-.85,1.4-66.63,47.94-87.1,83.42-17.85,30.94-24.44,69.76-18,105.38,1.25,7,3.69,13.73,5.91,21.77,46-58.21,26.72-35.23,74-88.13,3.3,39.33.91,63,24.56,91.72,10.21-39.62,23.2-76.46,40.92-112.94.59,3.74.83,1-.92,9.62-6.59,32.59-9.93,65.35-5.9,98.47,5.19,42.78,20.89,80.16,54.23,108.15,6.22,5.22,13.33,9.36,19.52,13.64,1.32-71.68-1-123.17,11.3-193.09,7.09-40.12,23.51-76.59,23.56-76.64,17.61,46.24,90.28,108,95.34,159.27,36.18-37.71,8.34-80.53-13-120.85a716.24,716.24,0,0,1,104.72,173.39,32.61,32.61,0,0,0,2.61-2.38c13.53-15.76,19.93-41.54,21-69.25C1830.44,511.17,1826.67,482,1808.21,445Z" transform="translate(0 311.75)"/><path class="cls-12" d="M455.29-1.23S659.14,66.25,841.9,42.36,770.2-108.07,650.71-98.23,455.29-1.23,455.29-1.23Z" transform="translate(0 311.75)"/><path class="cls-13" d="M264.36,850.88l36.76-26.41c6.06-16.2,11.28-44.44,11.84-57,2-45-8.64-58.94-9.64-87.77l-14.48,6.39,14-18.12c-1.17-21.42-3.12-35.79-3.12-35.79s-22.65,33.16-55.9,78.06S194,1031.1,194,1031.1,274.29,909,300.72,841.23Z" transform="translate(0 311.75)"/><path class="cls-11" d="M375.52,813.88l44.74-8.11a141.07,141.07,0,0,0,8.12-24.66l-23.7-5,25.11-1.64c3.24-16.93.63-95.93,1.39-97.58,0,0-92.62,72.9-137.45,124.26-32.37,37.08-85.61,174.47-85.61,174.47s135.33-102,175.09-126.14c16.21-9.86,27-23.58,34.32-37.92Z" transform="translate(0 311.75)"/><path class="cls-13" d="M657.66,754.38l-44.3-34.75,69.41,27.86c13.79-3.72,22-5.84,22-5.84s-26.64-53.84-118-71.79-142.72,10-203.61,52.85C326.63,762.5,206.17,963,206.17,963l30.45,109.69S360.31,855.33,459.26,817.44c9-3.47,33.51-7.85,43.2-11.29l-24-8.43,33.42.31c24.65-8.41,57.08-18.47,81.45-25.87l-12.65-11.95,31.08,7.28C628.6,762.55,644.23,758.12,657.66,754.38Z" transform="translate(0 311.75)"/><path class="cls-13" d="M1608.09,341.8s-58.27-20.85-134.18,8-97,101.2-105.42,137.75,9.89,77.48,9.89,77.48l73.25-83.88s12.44-43.5,43.37-70.91S1608.09,341.8,1608.09,341.8Z" transform="translate(0 311.75)"/><path class="cls-14" d="M1289.59,330A1552.77,1552.77,0,0,1,1469,319.47c98.4,0,139.12,22.33,139.12,22.33s-49.94-79.4-164.11-97S1289.59,330,1289.59,330Z" transform="translate(0 311.75)"/><path class="cls-15" d="M1618,354.14l-9.88-12.34s-73.13,46.74-91.6,108.73-13.79,131.34,5,170.7S1588,691.51,1588,691.51L1602,539.69l-11.25-30.92,13.12,18.74Z" transform="translate(0 311.75)"/><path class="cls-13" d="M1607.66,126.42s-31.25,59.13-33.73,91.83c-4.07,53.42,30.92,121.83,30.92,121.83L1618,354.14s6.56-126.51,11.25-140.57,15-34.67,15-34.67l-28.11,17.8,28.11-30s6.56-61.85,16.87-84.34C1661.08,82.37,1628.28,105.8,1607.66,126.42Z" transform="translate(0 311.75)"/><path class="cls-13" d="M1762.29,403.81c-57.16-50.61-150.88-65.6-150.88-65.6l63.41,76.84,6.88-41.23,4.06,51.23s99.73,161.62,119.58,197.46C1805.34,622.51,1819.46,454.41,1762.29,403.81Z" transform="translate(0 311.75)"/><path class="cls-16" d="M1761.35,228.56s-59-11.24-103.08,29.06-53.42,82.46-53.42,82.46l12.18,3.75s113.4-42.17,177.12-26.24,85.28,45.92,85.28,45.92S1847.57,237.93,1761.35,228.56Z" transform="translate(0 311.75)"/><path class="cls-17" d="M455.29-1.23S572,22.67,636.65,87.34s28.11,210.88,28.11,210.88l-22.49-59.05,9.84-45-22.25,42.92Z" transform="translate(0 311.75)"/><path class="cls-18" d="M448.26,11.43s-15.46,59-4.21,116.68-29.67,200.74-29.67,200.74,69.55-14,101.36-79.84C549.63,178.9,466.23-9.47,466.23-9.47Z" transform="translate(0 311.75)"/><path class="cls-19" d="M461.54,6.46s-128.39,55.29-181.8,149-44.05,217.41-44.05,217.41l80.59-133.07,5.63-56.23,4.68,44Z" transform="translate(0 311.75)"/><path class="cls-20" d="M455,10.21S444.67-60.08,454-102.25s60-89,60-89S506.52-36.65,455,10.21Z" transform="translate(0 311.75)"/><path class="cls-21" d="M1034.5,1029.26l88.57,119.5s73.11-111.06,77.32-113.88S1034.5,1029.26,1034.5,1029.26Z" transform="translate(0 311.75)"/></g><path class="cls-21" d="M571.19,883.62h-3.75l-65.6,16.87-131.2,105s130.26,5.62,133.07,4.69-9.37-63.73-9.37-63.73Z" transform="translate(0 311.75)"/><path class="cls-22" d="M1995,957.6a1248.8,1248.8,0,0,1-29.65,125.93c-21.45,72.61-44.25,141.82-65.49,201.07-61.83,37.12-142.59,46.17-221.89,34.09-8.15-124.29,10-322.51,190.71-654.36,18.83-34.6,88.6-159.21,98.48-159.56,19.92-.7,46.9,7.42,49.7,30.36C2027.73,624.2,2024.71,796.78,1995,957.6Z" transform="translate(0 311.75)"/><path class="cls-23" d="M1976.71,957.6a1254.25,1254.25,0,0,1-29.65,125.93c-21.45,72.61-48.26,153.73-69.5,213-35.45,21.28-75.79,29.42-118.71,30.22-3.6.07-7.21.08-10.85,0-28.63-.26-58.31-3.57-88.34-8.15-8.15-124.29,10-322.45,190.72-654.3,18.84-34.6,57-99.41,80.49-135.46,24.47-37.6,63.52-27.91,67.7,6.26C2009.46,624.2,2006.44,796.78,1976.71,957.6Z" transform="translate(0 311.75)"/><path class="cls-6" d="M1758.84,1326.73c47.09-138.69,124.36-388.45,152.92-550,6.47-36.59,10.51-69.36,11.21-96.29L1903,754l-154.9,572.75Q1753.49,1326.82,1758.84,1326.73Z" transform="translate(0 311.75)"/><path class="cls-11" d="M219.44,654.56c-7.63-23.17-30.25-70.7-74.33-106.3s-91.87-33.49-91.87-33.49,10.93,10.34,24.28,29.92l23.3,5.38L84,554.72a275.6,275.6,0,0,1,37.23,98.67q1.21,7.1,2.54,13.92l13.78,3-12.49,3.43c17.39,83.82,48.53,135.35,68.93,163.72,51.51,71.64,65,152.29,65,152.29S247.44,739.57,219.44,654.56Z" transform="translate(0 311.75)"/><path class="cls-13" d="M1299.77,1071.32l30.22,2.11c24.65-8.41,56.45-17.2,80.82-24.6l-48.07-34.12,66.5,29.45c52.66-15.4,93-25.84,93-25.84s-26.64-53.84-118-71.79-138.69-4.57-199.59,38.31c-56.51,39.79-150.88,264-150.88,264l-1.4,86s127.46-196.09,226.41-234c9-3.46,27.92-8.63,37.61-12.06Z" transform="translate(0 311.75)"/><path class="cls-11" d="M1088.77,1039.23l21.79-46.38c-9.66-16.74-34.32-51.39-53.47-62.37l-4.57,405.14S1092.24,1228.49,1119,1125c9.18-35.51,21.51-100.76,9.14-124.4Z" transform="translate(0 311.75)"/><path class="cls-11" d="M1371.71,1143.14a853.88,853.88,0,0,0-116.41,26.31C1193,1188.53,1042.83,1336,1042.83,1336a59.23,59.23,0,0,0,11.64.7c31.81-.71,123.38-5.82,179.7-33.22l-20.3-16.14,34.7,8.1,0,0c33-21.31,72.39-78.72,87.68-109.4l-17.35-6.37,26.41-3.91C1361.71,1156.79,1371.71,1143.14,1371.71,1143.14Z" transform="translate(0 311.75)"/><path class="cls-2" d="M908.66,901.78a8.28,8.28,0,0,1-1.63-.17c-4.69-1-7.77-6-6.87-11.26l34.57-201.42c.9-5.22,5.42-8.64,10.12-7.64s7.76,6,6.86,11.25L917.14,894C916.35,898.57,912.72,901.78,908.66,901.78Z" transform="translate(0 311.75)"/><path class="cls-24" d="M834,693.19,798.51,896.55,905.34,898l38.18-216.83-97.14,0C839,681.4,834.89,687.82,834,693.19Z" transform="translate(0 311.75)"/><path class="cls-2" d="M688,892.3c0,.12,0,.23,0,.34h0c0,6.35,5.81,11.51,13,11.53l203.23.4c7.2,0,13-5.12,13.06-11.47,0-.27,0-.54,0-.8Z" transform="translate(0 311.75)"/><path class="cls-25" d="M641.08,892.15c0,.11,0,.22,0,.34h0c0,6.35,4.08,11.51,9.12,11.52l142.45.4c5,0,9.14-5.12,9.15-11.47,0-.27,0-.53,0-.79Z" transform="translate(0 311.75)"/><path class="cls-26" d="M656.41,1276.78l12.18,38.29c.94,4.53,1.51,16.11,3,20,5.6,14.55,60-37.3,43-38.16-1.54-.08-9.28-.23-11.62-5-3.61-7.37-13.73-34.81-13.73-34.81Z" transform="translate(0 311.75)"/><path class="cls-27" d="M670.07,1344.58c-6.79-3-2.59-33-2.59-33s18,2.24,25.39-1.87,17-22.9,17-22.9c35.08-1.6,71.71,8.15,70.29,18.27C780.17,1305.1,676.85,1347.59,670.07,1344.58Z" transform="translate(0 311.75)"/><rect class="cls-6" y="1647.41" width="1281.28" height="18.35" rx="7.74"/><path class="cls-22" d="M605.86,796.47s-88.56-22-135.18-22c-40.23,0,13.35,45,13.35,45s90,17.81,91.37,17.81S605.86,796.47,605.86,796.47Z" transform="translate(0 311.75)"/><rect class="cls-28" x="262.18" y="1400.34" width="23.35" height="173.04"/><path class="cls-27" d="M294.94,1300.15H256.52v-45a6.27,6.27,0,0,1,6.12-6.41h26.18a6.27,6.27,0,0,1,6.12,6.41Z" transform="translate(0 311.75)"/><polygon class="cls-27" points="134.66 1642.35 258.88 1588.06 259.18 1611.5 169.81 1642.35 169.82 1647.41 134.66 1647.41 134.66 1642.35"/><polygon class="cls-27" points="416.78 1642.34 416.78 1647.41 381.62 1647.42 381.63 1642.34 291.51 1611.85 292 1587.67 416.78 1642.34"/><polygon class="cls-27" points="292.59 1647.78 292.59 1651.98 256.06 1651.98 256.06 1647.78 264.4 1647.78 264.4 1588.06 287.27 1588.06 284.87 1647.78 292.59 1647.78"/><rect class="cls-27" x="255.9" y="1643.52" width="36.67" height="8.43"/><rect class="cls-28" x="514.44" y="1239.91" width="267.71" height="93.79"/><path class="cls-24" d="M396.06,1038.2c-68.55-10.46-106.34,9.73-138.81-11.19-20.54-13.24-14.61-126.12-29.05-174.31-3-9.89-10.65-15-20.48-17.1C175.58,828.84,147.24,857.82,154,890L201,1115.1l254,4.68S464.6,1048.66,396.06,1038.2Z" transform="translate(0 311.75)"/><rect class="cls-22" x="908.15" y="1055.07" width="146.19" height="162.11"/><rect class="cls-23" x="908.15" y="1055.07" width="33.49" height="162.11"/><rect class="cls-2" x="952.28" y="1084.09" width="28.23" height="133.11"/><rect class="cls-7" x="980.51" y="772.34" width="99.89" height="133.11" transform="translate(2060.9 1989.54) rotate(180)"/><rect class="cls-25" x="688.66" y="1234.55" width="209.63" height="365.93"/><rect class="cls-24" x="493.09" y="1228.06" width="23.09" height="419.35"/><rect class="cls-24" x="789.98" y="1600.32" width="21.27" height="47.1"/><rect class="cls-24" x="1033.15" y="1600.32" width="21.27" height="47.07"/><path class="cls-26" d="M689.57,1272.57l62,45.1c3.33,3.21,10.31,12.46,13.73,14.82,12.83,8.87,28.56-64.61,14-55.74-1.32.8-7.8,5-12.43,2.4-7.13-4.06-58.42-38.91-58.42-38.91Z" transform="translate(0 311.75)"/><path class="cls-27" d="M770.62,1335.66c-7.3,1.33-21.82-20-21.82-20s16.11-8.55,19.87-16.09,10.5-22.77,10.5-22.77c28.07-21.08,74.54-28.87,79.07-19.7C858.24,1257.11,777.91,1334.33,770.62,1335.66Z" transform="translate(0 311.75)"/><path class="cls-7" d="M579.93,1010.42c-18-15.31-122.26-39.34-199.48-57.7l-.06-.09-16.62-16.84-4,.94-64.63-3.48,12.28,93.27,236.69,54.18c5.69,18.89,11.31,27.1,28.54,67.28,20.85,48.63,81.71,138.32,81.71,138.32l41.89-20.7S595.6,1023.76,579.93,1010.42Z" transform="translate(0 311.75)"/><path class="cls-2" d="M747.66,1256.28l-202.87-179.8L366.08,960.55,367.94,935,255.41,913.05c-.67-.13-8.82,23.14-9.65,25.45a160.18,160.18,0,0,0-7.68,27.59c-3.41,20.42.28,42.41,13.79,58.69,41,49.41,91.29,71.94,118.76,81.21,47.7,16.09,74.43,30.31,152.48,64.31,0,0,37.71,35.71,69.73,54,18.14,10.34,73.32,38.19,119.39,64.21Z" transform="translate(0 311.75)"/><rect class="cls-28" x="708.01" y="1234.55" width="349.55" height="365.93"/><rect class="cls-24" x="684.6" y="1226.43" width="28.16" height="421.16"/><path class="cls-29" d="M633.27,836.06c-12.65-7.58-27.13,13.47-29.91,22.89,34.33,12.45,65.77,19.57,69,26.08L693,873.78C681.73,865.15,642.39,839.25,633.27,836.06Z" transform="translate(0 311.75)"/><path class="cls-29" d="M709.41,886.12c14.81,5.09,50.73,29.48,56.49,37.77,5.12,7.37,14.6,32.39,14.6,32.39-4.65,6.14-14.07-22.83-14.62-22-1.47,2.31,13.35,30.38,10.31,32.4-6.06,4-16.44-30.38-17.41-25.64s13.77,30.32,10.2,32.67-14.32-24-17.86-27.35c-4.42-4.19,11.22,28.65,8.23,30.42-2.44,1.45-11.67-16.65-20-34.35-.73-1.56-4.87-7-3.74,2.89.29,2.46,1.92,8,1.38,9.59-1,3.18-3.84.28-5.48-3.11L720.66,927s-3.9-8.05-3.28-12-46.7-25.77-46.7-25.77Z" transform="translate(0 311.75)"/><path class="cls-26" d="M481.46,788.5s26.94,6.1,48.49.94,47.8-8.9,47.8,10.78-53.42,24.83-53.42,24.83S486.61,824.12,481.46,788.5Z" transform="translate(0 311.75)"/><path class="cls-27" d="M637.1,776.92c-4.93-6.86-13.57-10.23-22.29-10.64-11.7-11.51-46.83-13.39-69.71-4.48,0,0-9.06,2-17,12S516.21,797.41,512,803.34s15,30.77,15,30.77l.09-.3c4.79,5.58,11.6,10.11,19.13,15.14,22.37,11.17,67.37,31.75,82.17-8.25a19.9,19.9,0,0,1,4.92-7.55C647.87,819.38,650.21,795.15,637.1,776.92Z" transform="translate(0 311.75)"/><path class="cls-23" d="M827.45,897.7l0,6.38,50.82.14a2.62,2.62,0,0,0,2.06-4.22c-3.86-5-10.62-12.94-16.41-15.63-4.54-2.11-14.38-2.07-22.7-1.55A14.79,14.79,0,0,0,827.45,897.7Z" transform="translate(0 311.75)"/><path class="cls-27" d="M619.76,768.51c0,8.22-15.37,7.58-30.18,7.58S538.7,777.2,538.7,769s36.06-22.65,50.88-22.65S619.76,760.3,619.76,768.51Z" transform="translate(0 311.75)"/><path class="cls-30" d="M738.88,902.36l-2.13-1.09-30.92,5.48a78.07,78.07,0,0,1,10,6.25l32.2-4.36C745.1,906.56,742,904.43,738.88,902.36Z" transform="translate(0 311.75)"/><path class="cls-26" d="M813.91,879.09l3.9-3.9s22.14,0,26.4.94c2,.44,17.33,9.68,15.93,12.8s-16.09-5.31-16.09-5.31l-14.84-.93Z" transform="translate(0 311.75)"/><rect class="cls-24" x="451.43" y="1215.72" width="654.6" height="25.92" rx="10.93"/><path class="cls-26" d="M540.65,838.09l101.76,27.73s58.1,4.68,88.09,8,50.14,8.91,55.76,8,24.83-6.56,30.93-6.56c3,0,23.07,6.91,23.07,6.91s18.61,17.17,19.33,20c1.41,5.62-21.44-12.77-21.44-12.77s18.63,12.07,18.16,14.65-22.84-7.62-22.84-7.62,14.8,5,13.94,7.85c-.35,1.14-50.37-.35-54.82-.23s-149.24,8.66-149.24,8.66L511.68,900Z" transform="translate(0 311.75)"/><path class="cls-23" d="M611.55,852.28c-1.56-1-87.57-28.16-87.57-28.16s-45.6-48.49-54.94-49.91c-72.63-11-100.77-6.82-155.57,44.28-48.73,45.45-71.69,132.14-71.69,132.14,39.92,24.41,128,6.37,128,6.37,7.11-1.45,10.61-4.37,10.61-4.37l-5.07-7.15C383.47,933.8,431,915,454,910.8c13.4-2.41,23.5-4,31.36-5.15,28.78,3,111.32,7.73,111.32,7.73S618.05,856.48,611.55,852.28Z" transform="translate(0 311.75)"/></g></g></svg>